<svg width="250" height="150" viewBox="0 0 449 327" fill="none" xmlns="http://www.w3.org/2000/svg">
<path d="M27.665 53.3357L24.7414 70.4212C24.5482 71.5547 25.0718 72.5782 26.1972 73.2666C27.3226 73.9551 28.9576 74.2522 30.7427 74.0926L41.5949 73.1254C42.9341 75.8931 44.9348 78.4314 47.496 80.6427L41.0998 87.039C40.0382 88.1005 39.5956 89.2891 39.8695 90.3432C40.1433 91.3973 41.1111 92.2306 42.5599 92.6598L64.4112 99.1324C65.86 99.5616 67.6712 99.5514 69.4463 99.1043C71.2214 98.6571 72.8151 97.8095 73.8766 96.7479L80.2729 90.3517C85.1156 90.3189 90.0958 89.8531 95.0758 88.9672L99.4758 94.4522C100.981 96.3248 104.995 96.6579 108.399 95.2017L133.174 84.5888C134.813 83.882 136.097 82.8487 136.748 81.714C137.398 80.5793 137.362 79.4351 136.647 78.5306L132.327 73.1364C135.864 70.3579 138.859 67.3581 141.218 64.2312L151.887 63.2773C155.588 62.9468 158.951 60.7521 159.348 58.4003L162.272 41.3148C162.465 40.1813 161.941 39.1578 160.816 38.4693C159.691 37.7809 158.056 37.4838 156.27 37.6434L145.418 38.6106C144.087 35.8525 142.104 33.3236 139.523 31.0949L145.919 24.6986C146.98 23.6371 147.423 22.4485 147.149 21.3944C146.875 20.3403 145.907 19.507 144.459 19.0778L122.607 12.6052C121.159 12.176 119.347 12.1862 117.572 12.6333C115.797 13.0805 114.204 13.9281 113.142 14.9897L106.746 21.3859C101.903 21.4187 96.9228 21.8845 91.9427 22.7704L87.5483 17.287C87.191 16.8396 86.6767 16.4653 86.0347 16.1855C85.3927 15.9056 84.6357 15.7258 83.8069 15.6561C82.9781 15.5865 82.0939 15.6286 81.2047 15.7798C80.3156 15.931 79.439 16.1885 78.6251 16.5375L53.8503 27.1504C52.2115 27.8572 50.9269 28.8905 50.2763 30.0252C49.6257 31.1599 49.6618 32.3041 50.3766 33.2086L54.6975 38.6028C51.1567 41.3799 48.1579 44.3786 45.7956 47.5047L35.1265 48.4587C31.4255 48.7892 28.0625 50.9838 27.665 53.3357ZM109.517 39.8574C121.568 43.4271 124.188 53.5108 115.358 62.3406C106.528 71.1705 89.5469 75.4482 77.496 71.8786C65.445 68.3089 62.8255 58.2252 71.6553 49.3954C80.4852 40.5655 97.4662 36.2877 109.517 39.8574Z" fill="#F83226"/>
<path d="M343.932 187.808C345.227 188.191 345.222 189.392 343.923 190.188L304.814 214.145C303.974 214.66 302.832 214.841 301.995 214.593L298.233 213.479C296.938 213.095 296.942 211.895 298.242 211.099L337.35 187.141C338.191 186.627 339.332 186.445 340.17 186.693L343.932 187.808Z" fill="#F2FAFA"/>
<path d="M348.715 208.608L338.969 201.597C338.379 201.172 338.391 200.476 339 199.867L341.727 197.14C342.733 196.134 344.801 195.859 345.681 196.614L358.903 207.956C359.406 208.387 359.359 209.044 358.785 209.617L355.353 213.05L348.715 208.608ZM329.82 209.047C330.422 208.445 331.475 208.062 332.444 208.093L348.715 208.608L355.353 213.05C354.924 213.478 354.188 213.76 353.488 213.763L328.415 213.88C326.772 213.888 326.073 212.794 327.079 211.788L329.82 209.047Z" fill="#F2FAFA"/>
<path d="M279.744 188.178L295.854 188.826C296.829 188.865 297.897 188.481 298.506 187.872L301.233 185.145C302.239 184.139 301.54 183.045 299.897 183.053L275.218 183.168C274.28 183.172 273.293 183.55 272.719 184.124L269.287 187.556L279.744 188.178ZM289.326 197.052C289.928 196.45 289.947 195.761 289.374 195.335L279.744 188.178L269.287 187.556C268.858 187.984 268.824 188.474 269.198 188.796L282.632 200.318C283.512 201.073 285.579 200.799 286.585 199.793L289.326 197.052Z" fill="#F2FAFA"/>
<path fill-rule="evenodd" clip-rule="evenodd" d="M434.531 255.733C432.723 255.197 430.177 255.844 428.844 257.177C427.512 258.51 424.966 259.156 423.158 258.621L421.721 258.195C419.914 257.66 419.529 256.145 420.862 254.812C422.195 253.48 421.811 251.965 420.003 251.43L419.843 251.382C417.948 250.821 417.544 249.232 418.942 247.834L419.767 247.01C421.165 245.612 423.835 244.934 425.73 245.496C427.626 246.057 430.296 245.379 431.694 243.981C433.092 242.583 435.762 241.905 437.657 242.466L438.775 242.797C440.671 243.359 441.074 244.947 439.676 246.345L439.558 246.463C438.225 247.796 438.61 249.311 440.417 249.846C442.225 250.382 442.609 251.896 441.277 253.229L440.217 254.289C438.884 255.622 436.338 256.268 434.531 255.733Z" fill="#21619B"/>
<path d="M198.578 294.083C197.31 294.41 196.032 294.308 195.231 293.816L192.796 292.32C191.998 291.83 191.793 291.028 192.26 290.216L193.697 287.716C194.16 286.911 195.213 286.218 196.466 285.894L200.885 284.752C203.503 284.076 204.669 282.028 202.456 281.48C201.679 281.287 200.855 281.145 199.992 281.057C197.35 280.785 194.449 281.023 191.61 281.744C188.614 282.505 185.817 283.771 183.561 285.385C181.889 286.581 180.569 287.93 179.681 289.337C179.114 290.236 178.002 291.061 176.595 291.419L165.758 294.176L154.923 296.927C153.515 297.285 152.142 297.09 151.214 296.57C149.764 295.757 147.962 295.201 145.923 294.947C143.171 294.604 140.109 294.826 137.113 295.586C134.273 296.307 131.608 297.483 129.415 298.983C128.698 299.473 128.042 299.992 127.451 300.531C125.767 302.07 127.771 303.313 130.395 302.657L134.82 301.55C136.076 301.236 137.334 301.342 138.126 301.829L140.583 303.342C141.38 303.832 141.584 304.633 141.118 305.444L139.693 307.923C139.224 308.739 138.148 309.44 136.876 309.757L132.514 310.847C129.874 311.506 128.679 313.565 130.907 314.115C131.741 314.321 132.629 314.47 133.561 314.556C136.304 314.812 139.311 314.524 142.227 313.728C145.143 312.932 147.847 311.661 150.019 310.064C151.612 308.892 152.87 307.582 153.722 306.218C154.287 305.314 155.403 304.482 156.818 304.123L167.59 301.387L178.36 298.653C179.774 298.294 181.152 298.492 182.08 299.017C185.449 300.922 190.718 301.42 196.234 300.022C199.087 299.298 201.764 298.115 203.964 296.605C204.676 296.117 205.329 295.6 205.917 295.062C207.606 293.516 205.574 292.279 202.943 292.958L198.578 294.083Z" fill="#7829F9"/>
</svg>
