<svg width="313" height="258" viewBox="0 0 626 316" fill="none" xmlns="http://www.w3.org/2000/svg">
<path d="M12.9968 118.063L11.5687 126.075C11.4743 126.607 11.7145 127.086 12.2364 127.408C12.7583 127.729 13.5192 127.867 14.3518 127.79L19.4137 127.324C20.0274 128.62 20.9501 129.808 22.1354 130.841L19.1297 133.847C18.6309 134.346 18.42 134.904 18.5436 135.398C18.6672 135.891 19.1151 136.281 19.7888 136.481L29.9488 139.49C30.6225 139.69 31.4667 139.683 32.2958 139.471C33.1249 139.26 33.8709 138.86 34.3698 138.362L37.3755 135.356C39.6328 135.335 41.9559 135.111 44.2804 134.69L46.3102 137.256C47.0046 138.132 48.8745 138.284 50.4664 137.598L62.0545 132.594C62.8211 132.261 63.4237 131.775 63.7313 131.242C64.0389 130.71 64.0265 130.173 63.6968 129.75L61.7035 127.226C63.363 125.92 64.7704 124.51 65.8816 123.042L70.8581 122.582C72.5844 122.423 74.1603 121.391 74.3545 120.288L75.7826 112.275C75.877 111.743 75.6369 111.264 75.115 110.943C74.5931 110.621 73.8321 110.484 72.9995 110.56L67.9376 111.026C67.3278 109.735 66.4129 108.551 65.2184 107.51L68.2241 104.504C68.723 104.005 68.9338 103.447 68.8102 102.953C68.6866 102.46 68.2387 102.07 67.5651 101.871L57.405 98.861C56.7314 98.6614 55.8872 98.6682 55.0581 98.8799C54.229 99.0915 53.4829 99.4907 52.9841 99.9895L49.9783 102.995C47.721 103.016 45.398 103.24 43.0734 103.661L41.0461 101.095C40.8813 100.886 40.6431 100.711 40.3449 100.581C40.0467 100.45 39.6946 100.367 39.3086 100.335C38.9225 100.304 38.5102 100.324 38.0952 100.396C37.6802 100.468 37.2706 100.59 36.89 100.754L25.3019 105.758C24.5353 106.091 23.9326 106.577 23.6251 107.109C23.3175 107.642 23.3299 108.178 23.6596 108.602L25.6529 111.125C23.9919 112.431 22.5828 113.84 21.4697 115.309L16.4932 115.768C14.7669 115.927 13.1911 116.96 12.9968 118.063ZM51.1994 111.651C56.8027 113.311 57.9851 118.035 53.8357 122.185C49.6863 126.334 41.7552 128.359 36.1519 126.699C30.5486 125.039 29.3663 120.315 33.5156 116.166C37.665 112.016 45.5962 109.992 51.1994 111.651Z" fill="#31E9DE"/>
<path d="M276.412 25.891L274.865 23.3211L277.783 22.2384C278.501 21.9673 279.292 21.7286 280.154 21.5221C281.04 21.3225 281.889 21.145 282.7 20.9895C283.535 20.8408 284.238 20.7191 284.81 20.6246L284.894 20.4514C284.411 20.3082 283.852 20.1208 283.219 19.8892C282.609 19.6644 282.001 19.4074 281.395 19.118C280.83 18.8185 280.339 18.5191 279.922 18.2197L278.22 16.9237L282.265 14.6242L283.932 15.9099C284.349 16.2093 284.72 16.5834 285.047 17.0321C285.374 17.4809 285.658 17.9279 285.898 18.3732C286.162 18.8253 286.359 19.2246 286.49 19.5713L286.764 19.5206C286.983 19.1233 287.226 18.6564 287.494 18.1199C287.785 17.5902 288.125 17.0418 288.513 16.4748C288.901 15.9078 289.315 15.4037 289.756 14.9625L291.589 13.1297L295.455 14.2748L293.622 16.1076C293.181 16.5489 292.628 17.0121 291.964 17.4973C291.3 17.9825 290.638 18.4354 289.979 18.856C289.32 19.2767 288.72 19.6379 288.18 19.9398L288.276 20.0673C288.882 19.9387 289.585 19.8171 290.386 19.7024C291.226 19.5774 292.082 19.4678 292.952 19.3735C293.821 19.2792 294.6 19.246 295.288 19.2738L298.212 19.3479L296.86 22.445L293.902 22.3607C293.237 22.3397 292.508 22.2778 291.716 22.1752C290.964 22.0623 290.248 21.9275 289.57 21.7705C288.892 21.6136 288.3 21.4602 287.793 21.3102L287.572 21.4425C287.736 21.7552 287.91 22.1478 288.094 22.6202C288.318 23.0824 288.505 23.5667 288.655 24.0731C288.828 24.5862 288.897 25.0687 288.863 25.5205L288.776 27.4416L283.971 28.1301L284.058 26.209C284.069 25.7504 284.163 25.2392 284.339 24.6754C284.555 24.1015 284.785 23.5428 285.03 22.9995C285.298 22.463 285.525 22.013 285.709 21.6497L285.502 21.5883C285.041 21.8699 284.459 22.2142 283.753 22.6212C283.071 23.035 282.334 23.4437 281.543 23.8472C280.792 24.2406 280.054 24.5609 279.329 24.8083L276.412 25.891ZM298.54 35.6463C296.929 35.1691 295.735 34.5293 294.956 33.7268C294.218 32.9142 293.922 32.0017 294.07 30.9894C294.234 29.9602 294.876 28.8856 295.996 27.7655L299.509 24.2526C300.646 23.1156 301.955 22.2386 303.437 21.6217C304.919 21.0048 306.479 20.6529 308.117 20.5661C309.795 20.4692 311.439 20.6593 313.05 21.1365C315.443 21.8454 316.895 22.8693 317.405 24.2083C317.933 25.5304 317.45 26.9823 315.958 28.564L311.643 27.286C312.304 26.5358 312.507 25.8701 312.253 25.2889C312.039 24.6976 311.38 24.2383 310.275 23.9111C309.125 23.5703 307.978 23.5387 306.836 23.8162C305.71 24.0767 304.715 24.6397 303.849 25.5052L300.311 29.0436C299.445 29.9091 299.109 30.6782 299.301 31.3511C299.493 32.0239 300.164 32.5308 301.315 32.8716C302.419 33.1988 303.478 33.2592 304.489 33.053C305.541 32.8365 306.466 32.3737 307.265 31.6644L311.579 32.9424C309.949 34.4833 307.962 35.5006 305.619 35.9944C303.293 36.4712 300.933 36.3552 298.54 35.6463ZM319.134 41.7464C316.717 41.0306 315.311 39.9761 314.915 38.5829C314.535 37.1726 315.203 35.6105 316.917 33.8965L325.623 25.1906L329.937 26.4686L321.257 35.1491C320.357 36.0485 319.961 36.8329 320.067 37.5023C320.19 38.1547 320.804 38.6445 321.908 38.9717C322.99 39.292 324.067 39.3032 325.141 39.0053C326.254 38.6972 327.261 38.0934 328.16 37.194L336.841 28.5135L341.155 29.7916L332.449 38.4975C330.735 40.2115 328.676 41.3613 326.271 41.9467C323.883 42.5152 321.504 42.4484 319.134 41.7464ZM332.975 45.5163L346.975 31.5156L351.048 32.7221L348.376 35.3949L349.446 35.7119L346.539 36.9627C348.05 35.4524 349.647 34.4517 351.331 33.9606C353.015 33.4696 354.755 33.49 356.55 34.0216C358.598 34.6283 359.742 35.5721 359.982 36.8531C360.222 38.1342 359.519 39.5977 357.873 41.2439L356.855 42.2621L352.333 40.9227L353.122 40.1336C354.022 39.2341 354.395 38.4429 354.243 37.7599C354.114 37.0837 353.497 36.582 352.393 36.2548C351.265 35.9208 350.144 35.9079 349.031 36.216C347.941 36.5309 346.946 37.1381 346.046 38.0375L337.289 46.7943L332.975 45.5163ZM353.672 51.647L367.672 37.6463L371.745 38.8528L369.073 41.5257L370.143 41.8426L367.236 43.0935C368.747 41.5831 370.344 40.5824 372.028 40.0914C373.712 39.6004 375.452 39.6207 377.247 40.1524C379.295 40.759 380.439 41.7029 380.679 42.9839C380.919 44.2649 380.216 45.7285 378.57 47.3746L377.552 48.3928L373.03 47.0534L373.819 46.2643C374.719 45.3649 375.092 44.5736 374.94 43.8906C374.811 43.2144 374.194 42.7128 373.09 42.3856C371.962 42.0516 370.841 42.0386 369.728 42.3467C368.638 42.6616 367.643 43.2688 366.743 44.1683L357.986 52.9251L353.672 51.647ZM381.259 60.1488C379.648 59.6716 378.474 59.0267 377.735 58.2141C376.997 57.4014 376.701 56.489 376.849 55.4767C377.036 54.4543 377.681 53.3915 378.784 52.2885L382.297 48.7755C383.4 47.6725 384.681 46.8091 386.14 46.1853C387.639 45.5514 389.216 45.1826 390.871 45.0789C392.525 44.9751 394.158 45.1618 395.769 45.639C397.357 46.1093 398.508 46.7474 399.224 47.5532C399.962 48.3659 400.238 49.2834 400.051 50.3058C399.903 51.3181 399.278 52.3758 398.175 53.4788L395.655 55.999L383.954 52.5328L382.961 53.5256C381.976 54.5099 381.552 55.3521 381.687 56.052C381.839 56.735 382.548 57.264 383.814 57.6389C384.78 57.9252 385.682 58.0381 386.517 57.9778C387.37 57.9004 388.115 57.648 388.751 57.2206L392.997 58.4782C391.47 59.5877 389.628 60.296 387.472 60.6031C385.355 60.9001 383.284 60.7486 381.259 60.1488ZM393.26 52.9799L394.024 52.2162C394.991 51.2489 395.419 50.4187 395.307 49.7255C395.211 49.0154 394.542 48.4763 393.3 48.1082C392.057 47.7401 390.851 47.7237 389.68 48.0589C388.51 48.3941 387.441 49.0454 386.474 50.0127L385.939 50.5473L393.826 52.8174L393.26 52.9799ZM394.479 63.7347L408.48 49.734L412.691 50.9813L410.018 53.6542L411.191 54.0018L409.28 54.3924C410.434 53.2384 411.782 52.4719 413.324 52.0929C414.89 51.7206 416.466 51.7697 418.054 52.24C419.918 52.7922 420.944 53.69 421.132 54.9336C421.343 56.184 420.677 57.5814 419.132 59.1257L409.943 68.3153L405.628 67.0372L414.487 58.1786C415.335 57.33 415.689 56.5881 415.549 55.9526C415.409 55.3172 414.798 54.8393 413.717 54.5189C412.658 54.2054 411.581 54.1942 410.484 54.4853C409.411 54.7832 408.433 55.3735 407.55 56.2559L398.794 65.0127L394.479 63.7347ZM424.944 72.759C423.126 72.2205 422.073 71.4245 421.784 70.3711C421.518 69.3244 422.039 68.1477 423.346 66.841L430.27 59.917L425.127 58.3936L428.003 55.5171L433.146 57.0405L437.092 53.0949L441.441 54.3832L437.495 58.3288L444.779 60.4862L441.902 63.3627L434.619 61.2053L427.695 68.1293C426.812 69.0118 426.958 69.6268 428.132 69.9745L433.309 71.5081L430.433 74.3847L424.944 72.759ZM446.47 79.1351C445.227 78.767 444.321 78.2565 443.751 77.6037C443.204 76.9577 443.005 76.2169 443.154 75.3813C443.321 74.5287 443.854 73.6527 444.753 72.7533L455.928 61.5782L449.853 59.7787L452.73 56.9021L463.12 59.9797L449.068 74.0314C448.559 74.5405 448.347 75.0057 448.433 75.4271C448.559 75.8383 448.967 76.1461 449.657 76.3506L455.387 78.0479L452.51 80.9244L446.47 79.1351ZM455.06 87.6189L463.064 83.0605L469.225 67.7274L473.953 69.1282L470.321 77.3242C470.115 77.769 469.824 78.2987 469.448 78.9133C469.089 79.5109 468.777 80.0015 468.513 80.3851C468.984 80.0628 469.584 79.6574 470.311 79.1689C471.055 78.6634 471.714 78.2428 472.289 77.907L482.755 71.7354L487.312 73.0851L459.582 88.9583L455.06 87.6189ZM505.407 96.923C502.991 96.2073 501.584 95.1528 501.188 93.7595C500.808 92.3493 501.476 90.7871 503.19 89.0731L511.896 80.3672L516.21 81.6453L507.53 90.3257C506.631 91.2251 506.234 92.0096 506.34 92.6789C506.463 93.3313 507.077 93.8211 508.182 94.1483C509.263 94.4687 510.341 94.4799 511.414 94.1819C512.528 93.8738 513.534 93.2701 514.433 92.3706L523.114 83.6902L527.429 84.9682L518.723 93.6741C517.009 95.3882 514.949 96.5379 512.544 97.1234C510.156 97.6919 507.777 97.6251 505.407 96.923ZM518.661 100.519L532.662 86.5184L536.873 87.7658L534.2 90.4386L535.374 90.7863L533.462 91.1769C534.616 90.0229 535.964 89.2563 537.506 88.8773C539.072 88.5051 540.648 88.5541 542.236 89.0245C544.1 89.5766 545.126 90.4744 545.314 91.718C545.525 92.9684 544.859 94.3658 543.314 95.9101L534.125 105.1L529.81 103.822L538.669 94.963C539.517 94.1145 539.872 93.3725 539.731 92.7371C539.591 92.1016 538.981 91.6237 537.899 91.3034C536.84 90.9898 535.763 90.9786 534.666 91.2697C533.593 91.5677 532.615 92.1579 531.733 93.0404L522.976 101.797L518.661 100.519ZM545.179 108.704C543.292 108.145 542.245 107.208 542.039 105.893C541.855 104.585 542.578 103.116 544.208 101.487L548.001 97.6942C549.647 96.048 551.529 94.9117 553.647 94.2852C555.765 93.6587 557.778 93.6283 559.688 94.1941C561.253 94.6576 562.165 95.3566 562.424 96.2911C562.699 97.2086 562.268 98.2359 561.131 99.373L560.903 98.3484L561.904 98.645L565.101 95.2693L569.021 91.3491L573.336 92.6272L554.753 111.21L550.542 109.963L553.215 107.29L552.248 107.003L553.953 106.552C552.816 107.689 551.456 108.452 549.874 108.841C548.308 109.213 546.743 109.167 545.179 108.704ZM549.447 106.405C550.551 106.732 551.64 106.746 552.714 106.448C553.827 106.14 554.817 105.554 555.682 104.688L559.195 101.175C560.06 100.31 560.42 99.5472 560.274 98.888C560.168 98.2187 559.563 97.7204 558.458 97.3932C557.353 97.066 556.253 97.048 555.156 97.3391C554.06 97.6302 553.07 98.217 552.188 99.0995L548.675 102.612C547.793 103.495 547.424 104.266 547.571 104.925C547.717 105.584 548.342 106.077 549.447 106.405ZM567.532 115.325C565.922 114.848 564.747 114.203 564.009 113.391C563.27 112.578 562.975 111.666 563.122 110.653C563.309 109.631 563.954 108.568 565.057 107.465L568.57 103.952C569.673 102.849 570.954 101.986 572.413 101.362C573.912 100.728 575.489 100.359 577.144 100.256C578.799 100.152 580.431 100.338 582.042 100.816C583.63 101.286 584.782 101.924 585.497 102.73C586.235 103.543 586.511 104.46 586.324 105.482C586.177 106.495 585.551 107.552 584.448 108.655L581.928 111.176L570.227 107.709L569.234 108.702C568.25 109.687 567.825 110.529 567.96 111.229C568.113 111.912 568.821 112.441 570.087 112.816C571.054 113.102 571.955 113.215 572.791 113.154C573.644 113.077 574.388 112.825 575.024 112.397L579.27 113.655C577.743 114.764 575.901 115.473 573.745 115.78C571.628 116.077 569.557 115.925 567.532 115.325ZM579.533 108.157L580.297 107.393C581.264 106.426 581.692 105.595 581.58 104.902C581.485 104.192 580.816 103.653 579.573 103.285C578.33 102.917 577.124 102.9 575.953 103.236C574.783 103.571 573.714 104.222 572.747 105.189L572.212 105.724L580.099 107.994L579.533 108.157ZM581.339 119.085L595.34 105.084L599.413 106.291L596.74 108.964L597.81 109.281L594.904 110.532C596.414 109.021 598.011 108.021 599.695 107.529C601.379 107.038 603.119 107.059 604.914 107.59C606.962 108.197 608.106 109.141 608.346 110.422C608.586 111.703 607.884 113.167 606.237 114.813L605.219 115.831L600.697 114.492L601.486 113.702C602.386 112.803 602.76 112.012 602.607 111.329C602.478 110.653 601.861 110.151 600.757 109.824C599.629 109.49 598.509 109.477 597.395 109.785C596.305 110.1 595.31 110.707 594.41 111.606L585.654 120.363L581.339 119.085ZM243.902 63.4567C242.291 62.9795 241.097 62.3397 240.318 61.5372C239.58 60.7245 239.284 59.8121 239.432 58.7998C239.596 57.7706 240.238 56.6959 241.358 55.5759L244.871 52.063C246.008 50.926 247.317 50.049 248.799 49.4321C250.281 48.8152 251.841 48.4633 253.479 48.3765C255.157 48.2796 256.801 48.4697 258.412 48.9468C260.805 49.6557 262.257 50.6797 262.767 52.0187C263.294 53.3408 262.812 54.7927 261.32 56.3744L257.005 55.0964C257.666 54.3462 257.869 53.6805 257.615 53.0993C257.401 52.508 256.742 52.0487 255.637 51.7215C254.487 51.3807 253.34 51.3491 252.198 51.6266C251.072 51.8871 250.076 52.4501 249.211 53.3156L245.673 56.854C244.807 57.7195 244.47 58.4886 244.663 59.1615C244.855 59.8343 245.526 60.3412 246.677 60.682C247.781 61.0092 248.839 61.0696 249.851 60.8633C250.903 60.6469 251.828 60.184 252.627 59.4748L256.941 60.7528C255.311 62.2937 253.324 63.311 250.981 63.8048C248.655 64.2816 246.295 64.1656 243.902 63.4567ZM264.521 69.5313C262.91 69.0541 261.727 68.4177 260.972 67.622C260.256 66.8162 259.972 65.9071 260.119 64.8949C260.307 63.8725 260.96 62.8012 262.08 61.6812L265.542 58.2192C266.662 57.0991 267.952 56.2272 269.411 55.6035C270.91 54.9696 272.467 54.6059 274.081 54.5123C275.736 54.4085 277.369 54.5952 278.98 55.0724C280.614 55.5563 281.788 56.2012 282.504 57.0071C283.236 57.7959 283.509 58.7016 283.321 59.724C283.174 60.7363 282.549 61.7939 281.446 62.897L277.958 66.3845C276.838 67.5045 275.529 68.3815 274.03 69.0154C272.571 69.6391 271.026 70.0063 269.394 70.1168C267.779 70.2104 266.155 70.0152 264.521 69.5313ZM267.296 66.7566C268.446 67.0974 269.561 67.1307 270.641 66.8566C271.76 66.5723 272.761 65.9889 273.644 65.1064L277.106 61.6444C278.005 60.745 278.362 59.9707 278.176 59.3216C278.013 58.6794 277.356 58.1879 276.205 57.847C275.078 57.513 273.963 57.4797 272.86 57.7471C271.758 58.0144 270.757 58.5978 269.857 59.4972L266.395 62.9592C265.513 63.8417 265.156 64.616 265.325 65.282C265.511 65.9311 266.168 66.4226 267.296 66.7566ZM277.75 73.1528L291.75 59.1521L295.962 60.3995L293.289 63.0724L294.462 63.42L292.55 63.8106C293.704 62.6566 295.053 61.8901 296.595 61.511C298.16 61.1388 299.737 61.1879 301.325 61.6582C303.189 62.2103 304.215 63.1082 304.403 64.3518C304.614 65.6022 303.947 66.9996 302.403 68.5439L293.214 77.7334L288.899 76.4554L297.757 67.5967C298.606 66.7482 298.96 66.0062 298.82 65.3708C298.68 64.7354 298.069 64.2575 296.988 63.9371C295.929 63.6235 294.852 63.6123 293.755 63.9035C292.682 64.2014 291.704 64.7916 290.821 65.6741L282.064 74.4309L277.75 73.1528ZM305.19 81.578C303.74 81.1486 302.644 80.604 301.902 79.9442C301.16 79.2844 300.775 78.5655 300.748 77.7875C300.761 76.9994 301.151 76.1912 301.92 75.363L306.235 76.641C305.839 77.0959 305.771 77.5375 306.028 77.9658C306.309 78.4009 306.887 78.748 307.761 79.007L309.28 79.4569C310.339 79.7704 311.285 79.8529 312.12 79.7042C312.955 79.5555 313.635 79.2181 314.161 78.692C314.653 78.1999 314.793 77.7464 314.582 77.3318C314.41 76.9069 313.872 76.5056 312.967 76.1276L310.875 75.1778C308.932 74.3164 307.769 73.4218 307.384 72.494C306.999 71.5662 307.435 70.4743 308.691 69.2185C309.997 67.9118 311.606 67.0793 313.515 66.7209C315.441 66.3457 317.567 66.5022 319.891 67.1907L321.202 67.5792C323.319 68.2063 324.663 69.0552 325.233 70.1259C325.803 71.1966 325.548 72.3311 324.469 73.5293L320.154 72.2512C320.459 71.8574 320.477 71.4668 320.208 71.0792C319.962 70.6985 319.437 70.3888 318.631 70.1503L317.32 69.7617C316.33 69.4686 315.47 69.3897 314.738 69.5249C314.046 69.6499 313.446 69.967 312.936 70.4761C312.461 70.9513 312.3 71.3656 312.454 71.7191C312.625 72.0556 313.096 72.4043 313.869 72.7651L316.065 73.7456C318.083 74.6512 319.29 75.5917 319.686 76.5671C320.123 77.5323 319.705 78.6514 318.432 79.9242C317.075 81.2818 315.381 82.155 313.352 82.5438C311.362 82.9224 309.148 82.7505 306.709 82.0279L305.19 81.578ZM328.912 88.3079C327.094 87.7694 326.041 86.9734 325.752 85.92C325.486 84.8733 326.007 83.6967 327.313 82.3899L334.237 75.4659L329.094 73.9425L331.971 71.066L337.114 72.5894L341.06 68.6438L345.409 69.9321L341.463 73.8777L348.746 76.0351L345.87 78.9116L338.587 76.7542L331.663 83.6782C330.78 84.5607 330.926 85.1757 332.099 85.5234L337.277 87.0571L334.4 89.9336L328.912 88.3079ZM340.428 91.7189L354.428 77.7182L358.501 78.9247L355.828 81.5975L356.899 81.9145L353.992 83.1653C355.503 81.655 357.1 80.6543 358.784 80.1632C360.468 79.6722 362.208 79.6926 364.003 80.2242C366.051 80.8309 367.195 81.7747 367.435 83.0557C367.675 84.3368 366.972 85.8003 365.326 87.4465L364.308 88.4647L359.786 87.1253L360.575 86.3362C361.475 85.4367 361.848 84.6455 361.696 83.9625C361.567 83.2863 360.95 82.7846 359.845 82.4574C358.718 82.1234 357.597 82.1105 356.484 82.4186C355.393 82.7335 354.398 83.3407 353.499 84.2401L344.742 92.9969L340.428 91.7189ZM367.981 100.21C365.564 99.4947 364.158 98.4402 363.762 97.0469C363.382 95.6367 364.05 94.0746 365.764 92.3605L374.469 83.6546L378.784 84.9327L370.104 93.6131C369.204 94.5126 368.808 95.297 368.914 95.9664C369.037 96.6188 369.651 97.1086 370.755 97.4357C371.837 97.7561 372.914 97.7673 373.988 97.4694C375.101 97.1613 376.108 96.5575 377.007 95.6581L385.688 86.9776L390.002 88.2557L381.296 96.9616C379.582 98.6756 377.523 99.8253 375.118 100.411C372.73 100.979 370.351 100.913 367.981 100.21ZM388.781 106.372C387.17 105.895 385.976 105.255 385.197 104.452C384.459 103.64 384.163 102.727 384.311 101.715C384.475 100.686 385.117 99.6111 386.237 98.4911L389.75 94.9781C390.887 93.8411 392.196 92.9642 393.678 92.3472C395.16 91.7303 396.72 91.3785 398.358 91.2917C400.036 91.1948 401.68 91.3849 403.291 91.862C405.684 92.5709 407.136 93.5949 407.646 94.9339C408.174 96.256 407.691 97.7079 406.199 99.2896L401.884 98.0115C402.545 97.2613 402.748 96.5957 402.494 96.0145C402.28 95.4231 401.621 94.9639 400.516 94.6367C399.366 94.2959 398.219 94.2642 397.077 94.5417C395.951 94.8022 394.956 95.3653 394.09 96.2308L390.552 99.7691C389.686 100.635 389.35 101.404 389.542 102.077C389.734 102.749 390.405 103.256 391.556 103.597C392.66 103.924 393.719 103.985 394.73 103.779C395.782 103.562 396.707 103.099 397.506 102.39L401.82 103.668C400.19 105.209 398.203 106.226 395.86 106.72C393.534 107.197 391.174 107.081 388.781 106.372ZM411.7 112.831C409.882 112.292 408.829 111.496 408.54 110.443C408.274 109.396 408.795 108.22 410.102 106.913L417.026 99.9889L411.882 98.4654L414.759 95.5889L419.902 97.1124L423.848 93.1667L428.197 94.455L424.251 98.4007L431.534 100.558L428.658 103.435L421.375 101.277L414.451 108.201C413.568 109.084 413.714 109.699 414.887 110.046L420.065 111.58L417.189 114.457L411.7 112.831ZM422.594 116.058L425.496 113.156L432.124 115.119L440.346 106.897L434.581 105.189L437.458 102.313L447.365 105.247L436.266 116.346L442.134 118.084L439.232 120.986L422.594 116.058ZM447.29 102.189C446.416 101.93 445.887 101.565 445.703 101.092C445.536 100.603 445.733 100.078 446.293 99.5182C446.853 98.9582 447.547 98.592 448.376 98.4195C449.221 98.23 450.081 98.2648 450.956 98.5238C451.83 98.7829 452.351 99.157 452.518 99.6464C452.702 100.119 452.514 100.635 451.953 101.195C451.393 101.755 450.691 102.13 449.845 102.319C449.016 102.492 448.165 102.448 447.29 102.189ZM450.794 124.708C449.183 124.231 448 123.594 447.245 122.799C446.529 121.993 446.245 121.084 446.393 120.072C446.58 119.049 447.234 117.978 448.354 116.858L451.816 113.396C452.936 112.276 454.225 111.404 455.684 110.78C457.183 110.146 458.74 109.783 460.355 109.689C462.009 109.585 463.642 109.772 465.253 110.249C466.887 110.733 468.062 111.378 468.777 112.184C469.509 112.973 469.782 113.878 469.595 114.901C469.447 115.913 468.822 116.971 467.719 118.074L464.232 121.561C463.112 122.681 461.802 123.558 460.303 124.192C458.844 124.816 457.299 125.183 455.667 125.293C454.052 125.387 452.428 125.192 450.794 124.708ZM453.569 121.933C454.719 122.274 455.834 122.307 456.914 122.033C458.034 121.749 459.035 121.166 459.917 120.283L463.379 116.821C464.278 115.922 464.635 115.147 464.449 114.498C464.286 113.856 463.629 113.365 462.478 113.024C461.351 112.69 460.236 112.656 459.133 112.924C458.031 113.191 457.03 113.774 456.13 114.674L452.668 118.136C451.786 119.018 451.429 119.793 451.598 120.459C451.784 121.108 452.441 121.599 453.569 121.933ZM464.023 128.329L478.024 114.329L482.235 115.576L479.562 118.249L480.735 118.597L478.824 118.987C479.978 117.833 481.326 117.067 482.868 116.688C484.434 116.315 486.01 116.365 487.598 116.835C489.462 117.387 490.488 118.285 490.676 119.528C490.887 120.779 490.221 122.176 488.676 123.721L479.487 132.91L475.172 131.632L484.031 122.773C484.879 121.925 485.233 121.183 485.093 120.547C484.953 119.912 484.342 119.434 483.261 119.114C482.202 118.8 481.125 118.789 480.028 119.08C478.955 119.378 477.977 119.968 477.094 120.851L468.338 129.608L464.023 128.329Z" fill="#183153"/>
<path fill-rule="evenodd" clip-rule="evenodd" d="M497.669 306.593C495.551 305.965 492.568 306.723 491.006 308.285L489.317 309.974C487.755 311.536 484.772 312.294 482.653 311.666L478.177 310.34C476.059 309.713 475.608 307.938 477.17 306.376L478.859 304.687C480.421 303.125 479.97 301.35 477.852 300.723L475.076 299.901C472.958 299.273 472.507 297.498 474.07 295.936L477.371 292.635C478.933 291.073 481.916 290.315 484.034 290.943L486.81 291.765C488.928 292.392 491.912 291.634 493.474 290.072L495.521 288.025C497.083 286.463 500.066 285.706 502.184 286.333L506.661 287.659C508.779 288.286 509.23 290.061 507.668 291.623L505.621 293.67C504.058 295.233 504.509 297.007 506.627 297.635L508.917 298.313C511.035 298.941 511.486 300.716 509.924 302.278L506.623 305.579C505.061 307.141 502.077 307.899 499.959 307.271L497.669 306.593Z" fill="#1669E6"/>
</svg>
